<?xml version="1.0" encoding="UTF-8"?>
<svg width="512px" height="512px" viewBox="0 0 512 512" version="1.1" xmlns="http://www.w3.org/2000/svg" xmlns:xlink="http://www.w3.org/1999/xlink">
    <!-- Generator: Sketch 52.2 (67145) - http://www.bohemiancoding.com/sketch -->
    <title>instagram 2</title>
    <desc>Created with Sketch.</desc>
    <defs>
        <radialGradient cx="1.82641464%" cy="90.8289542%" fx="1.82641464%" fy="90.8289542%" r="144.880586%" gradientTransform="translate(0.018264,0.908290),scale(1.000000,0.997901),rotate(-87.006216),translate(-0.018264,-0.908290)" id="radialGradient-1">
            <stop stop-color="#FED576" offset="0%"></stop>
            <stop stop-color="#F47133" offset="26.34%"></stop>
            <stop stop-color="#BC3081" offset="60.91%"></stop>
            <stop stop-color="#4C63D2" offset="100%"></stop>
        </radialGradient>
    </defs>
    <g id="Page-1" stroke="none" stroke-width="1" fill="none" fill-rule="evenodd">
        <g id="instagram">
            <g id="Background_1_" fill="url(#radialGradient-1)">
                <path d="M0.862315789,249.627004 L0.862315789,263.453165 C4.41936842,395.665823 110.699789,501.846414 237.136842,511.783966 L276.048842,511.783966 C403.240421,501.738397 507.688421,394.585654 511.137684,263.237131 L511.137684,249.627004 C507.688421,115.90211 399.575579,7.45316456 269.365895,0.756118143 C129.239579,-6.37299578 4.74273684,106.288608 0.862315789,249.627004 Z" id="Path"></path>
            </g>
            <g id="Symbol" transform="translate(105.000000, 100.000000)" fill="#FFFFFF">
                <g id="Group">
                    <path d="M152.629895,28.4084388 C193.266526,28.4084388 198.117053,28.5164557 214.177684,29.2725738 C229.052632,29.9206751 237.029053,32.5130802 242.418526,34.5654008 C249.532632,37.3738397 254.598737,40.7223629 259.880421,46.1232068 C265.162105,51.5240506 268.503579,56.7088608 271.306105,63.9459916 C273.354105,69.4548523 275.833263,77.664135 276.587789,92.7864979 C277.342316,109.205063 277.450105,114.065823 277.450105,155.544304 C277.450105,197.022785 277.342316,201.883544 276.587789,218.30211 C275.941053,233.424473 273.461895,241.633755 271.306105,247.142616 C268.503579,254.379747 265.269895,259.564557 259.880421,264.965401 C254.598737,270.366245 249.532632,273.714768 242.418526,276.523207 C237.029053,278.683544 228.944842,281.167932 214.177684,281.816034 C198.117053,282.572152 193.266526,282.680169 152.629895,282.680169 C111.993263,282.680169 107.142737,282.572152 91.0821053,281.816034 C76.2071579,281.167932 68.2307368,278.575527 62.8412632,276.523207 C55.7271579,273.714768 50.6610526,270.366245 45.3793684,264.965401 C40.0976842,259.564557 36.7562105,254.379747 33.9536842,247.142616 C31.9056842,241.633755 29.4265263,233.424473 28.672,218.30211 C27.9174737,201.883544 27.8096842,197.022785 27.8096842,155.544304 C27.8096842,114.065823 27.9174737,109.205063 28.672,92.7864979 C29.3187368,77.664135 31.7978947,69.4548523 33.9536842,63.9459916 C36.7562105,56.7088608 39.9898947,51.5240506 45.3793684,46.1232068 C50.6610526,40.7223629 55.7271579,37.3738397 62.8412632,34.5654008 C68.2307368,32.4050633 76.3149474,29.9206751 91.0821053,29.2725738 C107.142737,28.6244726 111.993263,28.4084388 152.629895,28.4084388 Z M152.629895,0.432067511 C111.238737,0.432067511 106.064842,0.648101266 89.8964211,1.40421941 C73.728,2.16033755 62.6256842,4.75274262 52.9246316,8.64135021 C42.9002105,12.6379747 34.3848421,17.9308017 25.9772632,26.5721519 C17.4618947,35.2135021 12.288,43.8548523 8.40757895,54.1164557 C4.63494737,63.9459916 2.048,75.2877637 1.29347368,91.814346 C0.538947368,108.340928 0.431157895,113.633755 0.431157895,155.760338 C0.431157895,197.88692 0.646736842,203.179747 1.29347368,219.706329 C2.048,236.232911 4.63494737,247.466667 8.40757895,257.404219 C12.288,267.557806 17.4618947,276.307173 25.9772632,284.948523 C34.4926316,293.589873 42.9002105,298.8827 52.9246316,302.879325 C62.6256842,306.767932 73.728,309.360338 89.8964211,310.116456 C106.172632,310.872574 111.346526,311.088608 152.629895,311.088608 C193.913263,311.088608 199.194947,310.872574 215.363368,310.116456 C231.531789,309.360338 242.634105,306.767932 252.335158,302.879325 C262.359579,298.8827 270.874947,293.589873 279.282526,284.948523 C287.797895,276.307173 292.971789,267.665823 296.852211,257.404219 C300.624842,247.574684 303.211789,236.232911 303.966316,219.706329 C304.720842,203.179747 304.828632,197.88692 304.828632,155.760338 C304.828632,113.633755 304.613053,108.340928 303.966316,91.814346 C303.211789,75.2877637 300.624842,64.0540084 296.852211,54.1164557 C292.971789,43.9628692 287.797895,35.2135021 279.282526,26.5721519 C270.767158,17.9308017 262.359579,12.6379747 252.335158,8.64135021 C242.634105,4.75274262 231.531789,2.16033755 215.363368,1.40421941 C199.194947,0.648101266 193.913263,0.432067511 152.629895,0.432067511 Z" id="Shape" fill-rule="nonzero"></path>
                    <path d="M152.629895,75.935865 C109.406316,75.935865 74.4825263,111.581435 74.4825263,155.652321 C74.4825263,199.723207 109.514105,235.368776 152.629895,235.368776 C195.745684,235.368776 230.777263,199.723207 230.777263,155.652321 C230.777263,111.581435 195.745684,75.935865 152.629895,75.935865 Z M152.629895,207.392405 C124.604632,207.392405 101.861053,184.276793 101.861053,155.652321 C101.861053,127.027848 124.604632,103.912236 152.629895,103.912236 C180.655158,103.912236 203.398737,127.027848 203.398737,155.652321 C203.398737,184.276793 180.655158,207.392405 152.629895,207.392405 Z" id="Shape" fill-rule="nonzero"></path>
                    <ellipse id="Oval" cx="233.903158" cy="72.8033755" rx="18.2164211" ry="18.578903"></ellipse>
                </g>
            </g>
        </g>
    </g>
</svg>